<svg id="svg" version="1.1" xmlns="http://www.w3.org/2000/svg" xmlns:xlink="http://www.w3.org/1999/xlink" width="600" height="180.43010752688171" viewBox="0, 0, 400,120.43010752688171"><g id="svgg"><path id="path0" d="M47.688 41.339 C 47.104 41.511,46.504 41.749,46.355 41.868 C 46.205 41.986,45.904 42.184,45.685 42.307 C 45.467 42.431,45.017 42.685,44.685 42.873 C 43.868 43.336,42.971 43.830,41.583 44.582 C 40.942 44.930,40.304 45.302,40.167 45.408 C 40.029 45.515,39.729 45.694,39.500 45.805 C 39.028 46.035,37.551 46.861,35.426 48.083 C 34.629 48.542,33.701 49.056,33.363 49.227 C 33.026 49.398,32.725 49.604,32.694 49.685 C 32.664 49.767,32.500 49.833,32.329 49.833 C 32.159 49.833,31.969 49.916,31.906 50.017 C 31.844 50.118,31.558 50.310,31.271 50.445 C 30.985 50.579,30.450 50.860,30.083 51.070 C 29.717 51.279,29.135 51.612,28.792 51.809 C 28.448 52.006,27.885 52.324,27.542 52.517 C 27.198 52.710,26.798 52.972,26.654 53.100 C 26.509 53.228,26.274 53.333,26.132 53.333 C 25.990 53.333,25.772 53.457,25.647 53.607 C 25.442 53.854,25.462 53.866,25.835 53.732 C 26.063 53.650,27.000 53.585,27.917 53.587 C 29.891 53.590,29.431 53.389,36.050 57.144 L 40.517 59.677 41.550 59.114 C 42.796 58.435,44.745 57.340,45.958 56.639 C 46.302 56.440,46.846 56.135,47.167 55.962 C 47.487 55.788,47.901 55.557,48.087 55.448 C 48.669 55.105,52.831 52.761,53.280 52.522 C 55.532 51.329,56.834 47.552,55.820 45.158 C 54.412 41.834,51.170 40.312,47.688 41.339 M80.083 60.076 C 79.717 60.282,79.117 60.624,78.750 60.835 C 78.383 61.045,77.596 61.481,77.000 61.802 C 76.404 62.123,75.729 62.509,75.500 62.659 C 75.271 62.810,74.896 63.024,74.667 63.136 C 74.438 63.248,73.950 63.518,73.583 63.737 C 73.217 63.955,72.467 64.373,71.917 64.667 C 71.367 64.960,70.617 65.377,70.250 65.594 C 69.883 65.811,69.209 66.189,68.751 66.434 C 65.966 67.927,64.507 71.579,65.670 74.143 C 65.852 74.543,66.000 74.935,66.000 75.016 C 66.000 75.445,67.993 77.242,68.963 77.687 C 70.857 78.556,74.768 78.169,75.667 77.023 C 75.713 76.965,76.013 76.775,76.333 76.603 C 77.561 75.942,78.790 75.262,79.833 74.667 C 80.942 74.035,82.460 73.193,83.500 72.633 C 83.821 72.461,84.383 72.141,84.750 71.921 C 85.117 71.702,85.679 71.381,86.000 71.206 C 86.321 71.032,86.883 70.716,87.250 70.505 C 87.963 70.093,88.773 69.642,90.500 68.696 C 91.096 68.370,91.621 68.061,91.667 68.010 C 91.712 67.959,92.013 67.782,92.333 67.618 C 92.654 67.454,93.067 67.229,93.250 67.118 C 93.433 67.007,94.240 66.556,95.042 66.116 C 96.734 65.187,96.821 65.088,95.625 65.449 C 93.148 66.196,92.315 65.932,86.081 62.417 C 80.787 59.432,81.048 59.534,80.083 60.076 " stroke="none" fill="#f3801c" fill-rule="evenodd"></path><path id="path1" d="M25.065 54.145 C 20.528 55.959,20.148 62.666,24.451 64.995 C 25.206 65.403,25.598 65.636,26.202 66.035 C 26.450 66.199,26.762 66.333,26.896 66.333 C 27.030 66.333,27.164 66.400,27.194 66.481 C 27.225 66.563,27.524 66.769,27.858 66.940 C 28.485 67.259,30.898 68.633,31.975 69.284 C 32.574 69.645,32.670 69.696,33.167 69.909 C 33.304 69.968,33.717 70.199,34.083 70.423 C 34.450 70.647,34.938 70.925,35.167 71.041 C 35.396 71.157,36.108 71.559,36.750 71.935 C 38.024 72.681,39.631 73.573,40.417 73.971 C 40.692 74.110,40.954 74.273,41.000 74.333 C 41.046 74.394,41.308 74.557,41.583 74.696 C 42.294 75.055,43.894 75.939,45.211 76.700 C 49.070 78.928,51.995 78.784,54.417 76.246 C 57.782 72.719,56.568 68.569,51.320 65.658 C 50.090 64.975,48.858 64.285,48.583 64.123 C 48.308 63.961,47.877 63.748,47.625 63.648 C 47.373 63.549,47.167 63.405,47.167 63.328 C 47.167 63.252,46.998 63.137,46.792 63.073 C 46.585 63.009,46.229 62.828,46.000 62.671 C 45.771 62.514,45.096 62.123,44.500 61.802 C 43.904 61.481,43.117 61.046,42.750 60.835 C 41.453 60.091,40.615 59.667,40.439 59.667 C 40.342 59.667,38.347 58.587,36.006 57.268 C 29.370 53.529,29.887 53.757,27.928 53.711 C 26.421 53.675,26.129 53.720,25.065 54.145 " stroke="none" fill="#4483f3" fill-rule="evenodd"></path><path id="path2" d="M70.334 41.123 C 66.503 41.838,64.214 46.324,65.875 49.865 C 66.579 51.366,67.451 52.110,70.500 53.809 C 72.012 54.652,73.362 55.414,73.500 55.502 C 73.637 55.590,74.012 55.800,74.333 55.969 C 74.654 56.139,75.198 56.440,75.542 56.639 C 76.628 57.267,77.291 57.638,78.453 58.268 C 79.075 58.605,79.700 58.980,79.842 59.103 C 79.984 59.225,80.402 59.431,80.771 59.561 C 81.141 59.692,83.537 60.982,86.096 62.428 C 92.475 66.033,93.134 66.226,96.000 65.326 C 100.514 63.908,101.484 57.785,97.667 54.805 C 97.065 54.335,93.619 52.312,92.500 51.771 C 92.362 51.705,91.950 51.470,91.583 51.249 C 91.217 51.028,90.654 50.707,90.333 50.535 C 90.013 50.363,89.450 50.049,89.083 49.836 C 88.717 49.623,87.929 49.187,87.333 48.867 C 86.737 48.547,86.137 48.189,86.000 48.071 C 85.862 47.953,85.562 47.772,85.333 47.669 C 85.104 47.566,84.690 47.355,84.413 47.199 C 83.066 46.444,81.056 45.304,80.833 45.168 C 80.366 44.883,77.254 43.124,76.333 42.624 C 75.829 42.350,75.247 42.020,75.039 41.891 C 73.956 41.216,71.757 40.857,70.334 41.123 " stroke="none" fill="#0c9c5b" fill-rule="evenodd"></path><path id="path3" d="M128.083 45.279 C 127.625 45.414,126.967 45.595,126.621 45.681 C 126.275 45.766,125.714 45.986,125.374 46.168 C 125.033 46.351,124.703 46.500,124.641 46.500 C 124.131 46.500,120.167 49.744,120.167 50.161 C 120.167 50.247,120.049 50.383,119.904 50.464 C 119.760 50.544,119.554 50.765,119.446 50.954 C 118.227 53.092,117.667 54.150,117.667 54.311 C 117.667 54.417,117.595 54.635,117.507 54.794 C 116.507 56.603,116.584 62.399,117.642 65.042 C 120.657 72.576,129.033 76.319,136.724 73.570 C 137.869 73.161,139.369 72.376,139.472 72.131 C 139.503 72.059,139.605 72.000,139.700 72.000 C 140.899 72.000,143.928 67.833,144.850 64.917 C 145.235 63.696,145.433 58.879,145.111 58.556 C 144.956 58.400,132.297 58.265,131.708 58.412 C 131.348 58.503,131.333 58.578,131.333 60.337 L 131.333 62.167 136.222 62.167 L 141.111 62.167 140.982 63.118 C 140.911 63.641,140.781 64.222,140.694 64.410 C 139.576 66.811,138.837 67.732,137.140 68.834 C 135.747 69.739,134.632 70.110,132.606 70.340 C 129.974 70.639,127.734 70.101,125.438 68.618 C 123.762 67.536,121.941 65.048,121.471 63.198 C 121.385 62.860,121.237 62.283,121.142 61.917 C 120.375 58.958,121.514 54.799,123.804 52.197 C 126.243 49.425,132.133 47.998,134.969 49.492 C 135.124 49.573,135.720 49.873,136.293 50.158 C 136.867 50.443,137.687 51.011,138.115 51.421 C 138.543 51.831,138.975 52.167,139.075 52.167 C 139.326 52.167,141.833 49.625,141.833 49.372 C 141.833 48.889,139.756 47.140,138.500 46.565 C 135.816 45.337,134.760 45.108,131.583 45.068 C 129.639 45.043,128.691 45.100,128.083 45.279 M186.473 45.083 C 186.416 45.140,185.805 45.324,185.115 45.492 C 184.425 45.661,183.649 45.906,183.389 46.038 C 183.129 46.170,182.504 46.489,182.000 46.747 C 180.744 47.390,177.833 49.819,177.833 50.224 C 177.833 50.276,177.659 50.492,177.447 50.705 C 174.610 53.542,173.660 60.842,175.542 65.355 C 176.442 67.515,178.570 70.289,180.260 71.503 C 181.243 72.210,181.648 72.467,182.315 72.810 C 189.374 76.434,198.515 73.798,201.679 67.225 C 202.039 66.478,202.333 65.762,202.333 65.633 C 202.333 65.505,202.401 65.329,202.483 65.242 C 202.565 65.155,202.722 64.446,202.833 63.667 C 203.345 60.054,203.187 58.580,202.270 58.412 C 201.007 58.181,189.159 58.408,188.996 58.667 C 188.822 58.942,188.774 61.484,188.934 61.903 C 189.024 62.135,189.622 62.167,193.940 62.167 L 198.845 62.167 198.740 63.042 C 198.683 63.523,198.493 64.235,198.318 64.623 C 198.143 65.012,198.000 65.365,198.000 65.409 C 198.000 65.841,195.773 68.500,195.411 68.500 C 195.299 68.500,195.117 68.609,195.007 68.742 C 194.127 69.802,190.224 70.656,187.765 70.327 C 184.946 69.949,182.997 68.861,181.000 66.551 C 178.838 64.050,177.924 57.386,179.475 55.439 C 179.558 55.335,179.683 55.063,179.753 54.833 C 180.106 53.676,182.121 51.392,183.627 50.441 C 186.441 48.665,192.012 48.533,194.147 50.191 C 194.366 50.361,194.629 50.501,194.731 50.503 C 194.833 50.505,195.318 50.880,195.809 51.336 C 196.923 52.372,196.726 52.413,198.319 50.817 C 199.897 49.237,199.858 49.378,198.958 48.526 C 197.788 47.418,197.176 47.026,195.167 46.093 C 193.441 45.292,187.011 44.545,186.473 45.083 M149.458 45.603 C 149.030 45.732,149.002 73.568,149.430 73.732 C 150.056 73.972,159.014 73.834,160.802 73.557 C 165.885 72.770,170.448 68.953,171.473 64.632 C 171.566 64.239,171.758 63.467,171.899 62.917 C 172.245 61.565,172.246 57.772,171.900 56.417 C 171.760 55.867,171.571 55.121,171.481 54.759 C 170.569 51.100,166.789 47.419,162.750 46.254 C 162.200 46.095,161.525 45.891,161.250 45.800 C 160.730 45.628,149.971 45.449,149.458 45.603 M215.708 45.669 L 215.333 45.823 215.333 59.725 L 215.333 73.628 215.708 73.728 C 216.194 73.858,218.639 73.858,219.125 73.728 L 219.500 73.628 219.500 67.814 L 219.500 62.000 224.958 61.997 C 228.015 61.996,230.524 61.927,230.661 61.841 C 230.939 61.665,231.108 59.710,230.928 58.751 L 230.818 58.167 225.159 58.167 L 219.500 58.167 219.500 53.833 L 219.500 49.500 225.729 49.500 L 231.958 49.500 232.063 48.979 C 232.221 48.188,232.182 46.116,232.004 45.833 C 231.819 45.540,216.404 45.385,215.708 45.669 M344.278 48.611 C 344.217 48.672,344.167 49.985,344.167 51.528 L 344.167 54.333 342.601 54.333 C 340.757 54.333,340.833 54.248,340.833 56.314 C 340.833 58.141,340.859 58.167,342.694 58.167 L 344.154 58.167 344.215 63.792 C 344.289 70.683,344.435 71.405,346.026 72.748 C 347.461 73.960,350.494 74.426,352.667 73.768 C 353.553 73.500,353.559 73.443,352.888 71.665 C 352.191 69.813,352.123 69.724,351.591 69.966 C 350.582 70.426,349.141 70.020,348.636 69.134 C 348.471 68.845,348.403 67.440,348.363 63.458 L 348.309 58.167 350.454 58.167 C 353.082 58.167,353.000 58.232,353.000 56.151 C 353.000 54.213,353.172 54.333,350.403 54.333 L 348.333 54.333 348.333 51.680 C 348.333 50.221,348.288 48.909,348.232 48.764 C 348.127 48.490,344.537 48.352,344.278 48.611 M158.938 49.665 C 162.196 49.918,164.086 50.823,165.871 52.983 C 168.143 55.732,168.688 61.353,166.991 64.523 C 166.813 64.856,166.667 65.209,166.667 65.307 C 166.667 65.405,166.498 65.671,166.292 65.897 C 166.085 66.124,165.617 66.653,165.251 67.072 C 164.885 67.491,164.501 67.833,164.397 67.833 C 164.293 67.833,164.119 67.940,164.010 68.071 C 163.099 69.169,160.209 69.804,156.042 69.821 L 153.167 69.833 153.167 59.667 L 153.167 49.500 155.042 49.504 C 156.073 49.506,157.826 49.578,158.938 49.665 M254.643 53.743 C 254.584 53.804,254.024 53.926,253.399 54.014 C 247.598 54.836,244.204 62.720,247.030 68.810 C 250.217 75.681,259.989 76.406,264.222 70.086 C 264.953 68.994,264.874 68.852,263.040 67.964 L 261.417 67.178 261.000 67.679 C 258.631 70.529,256.224 71.289,253.583 70.019 C 252.668 69.578,251.339 68.511,251.330 68.209 C 251.328 68.140,251.179 67.896,251.000 67.667 C 250.821 67.438,250.672 67.086,250.670 66.885 C 250.668 66.684,250.592 66.473,250.500 66.417 C 250.408 66.360,250.333 66.019,250.333 65.659 L 250.333 65.003 257.708 64.960 L 265.083 64.917 265.067 63.573 C 265.008 58.637,262.077 54.636,258.040 53.983 C 256.586 53.747,254.763 53.618,254.643 53.743 M276.333 53.826 C 276.196 53.919,275.917 53.996,275.713 53.997 C 275.148 54.001,273.350 54.977,272.549 55.716 L 271.833 56.376 271.833 55.555 C 271.833 54.414,271.701 54.333,269.833 54.333 C 267.620 54.333,267.833 53.295,267.833 64.083 C 267.833 74.872,267.620 73.833,269.835 73.833 C 272.190 73.833,271.976 74.472,272.036 67.250 L 272.087 61.083 272.491 60.376 C 273.932 57.849,276.357 56.836,278.502 57.864 C 280.287 58.720,280.395 59.228,280.465 67.081 C 280.507 71.841,280.575 73.611,280.720 73.703 C 280.974 73.864,284.023 73.867,284.274 73.706 C 284.410 73.619,284.483 71.854,284.525 67.583 L 284.584 61.583 285.148 60.470 C 286.536 57.728,289.267 56.674,291.436 58.043 C 292.897 58.965,292.898 58.971,292.961 66.774 L 293.017 73.632 293.383 73.731 C 293.863 73.859,296.310 73.857,296.792 73.728 L 297.167 73.628 297.167 66.792 C 297.167 59.311,297.150 59.154,296.159 57.083 C 294.258 53.115,288.086 52.515,284.511 55.950 C 283.450 56.970,283.461 56.966,283.167 56.418 C 282.618 55.391,280.912 54.245,279.500 53.954 C 278.317 53.711,276.607 53.642,276.333 53.826 M308.167 53.858 C 306.416 54.212,305.890 54.374,304.910 54.861 C 303.923 55.353,302.170 56.781,302.164 57.099 C 302.162 57.182,301.991 57.411,301.783 57.608 C 301.575 57.805,301.195 58.405,300.938 58.941 C 300.681 59.478,300.394 60.060,300.300 60.235 C 299.649 61.455,299.746 66.415,300.455 68.167 C 304.198 77.406,318.067 75.979,319.536 66.202 C 320.139 62.191,319.152 58.743,316.767 56.531 C 316.501 56.285,316.126 55.921,315.934 55.722 C 315.463 55.236,313.759 54.393,312.833 54.188 C 312.421 54.097,311.726 53.942,311.289 53.844 C 310.368 53.638,309.231 53.643,308.167 53.858 M330.667 53.824 C 330.529 53.918,330.255 53.996,330.058 53.997 C 329.263 54.003,326.805 55.440,326.296 56.197 C 326.046 56.569,326.039 56.554,326.120 55.816 C 326.272 54.431,326.104 54.315,324.033 54.369 L 322.250 54.417 322.207 63.989 C 322.173 71.537,322.208 73.590,322.374 73.695 C 322.618 73.851,325.515 73.881,325.903 73.732 C 326.135 73.643,326.167 73.047,326.170 68.774 C 326.174 61.566,326.355 60.513,327.864 58.903 C 329.520 57.136,332.734 57.038,334.294 58.707 C 335.309 59.792,335.409 60.512,335.500 67.417 L 335.583 73.750 337.000 73.801 C 337.779 73.829,338.660 73.806,338.958 73.751 L 339.500 73.652 339.497 66.951 C 339.492 57.916,338.961 56.112,335.840 54.516 C 334.626 53.895,331.228 53.441,330.667 53.824 M242.144 53.995 C 241.720 54.071,241.157 54.265,240.894 54.427 C 239.587 55.229,239.052 55.626,238.669 56.075 L 238.250 56.568 238.167 55.492 L 238.083 54.417 236.500 54.368 C 235.629 54.341,234.748 54.361,234.542 54.413 L 234.167 54.506 234.167 64.069 C 234.167 72.635,234.194 73.642,234.430 73.732 C 234.803 73.875,237.711 73.853,237.941 73.706 C 238.076 73.619,238.150 71.903,238.196 67.833 C 238.238 64.093,238.324 61.967,238.443 61.750 C 238.544 61.567,238.766 61.123,238.938 60.764 C 239.451 59.689,239.524 59.590,240.117 59.162 C 240.430 58.935,240.778 58.668,240.890 58.567 C 241.345 58.156,242.402 57.965,243.891 58.023 L 245.416 58.083 245.751 56.917 C 245.935 56.275,246.132 55.675,246.190 55.583 C 246.547 55.013,246.520 54.333,246.133 54.186 C 245.537 53.959,243.017 53.838,242.144 53.995 M257.592 57.822 C 259.084 58.347,260.345 59.640,260.569 60.875 L 260.682 61.500 255.674 61.500 C 249.908 61.500,250.197 61.606,251.308 59.901 C 252.086 58.708,252.882 58.105,254.333 57.611 C 254.945 57.403,256.728 57.519,257.592 57.822 M312.167 58.074 C 314.775 59.387,315.920 61.901,315.487 65.362 C 314.760 71.155,307.099 72.525,304.616 67.305 C 303.681 65.337,303.634 62.232,304.521 60.974 C 304.693 60.731,304.833 60.458,304.833 60.368 C 304.833 59.749,306.852 58.226,308.500 57.601 C 309.167 57.348,311.262 57.618,312.167 58.074 " stroke="none" fill="#040404" fill-rule="evenodd"></path><path id="path4" d="M27.047 53.623 C 27.485 53.657,28.160 53.657,28.547 53.622 C 28.934 53.587,28.575 53.559,27.750 53.559 C 26.925 53.560,26.609 53.588,27.047 53.623 M24.917 54.089 C 24.500 54.290,24.486 54.313,24.833 54.228 C 25.306 54.113,25.836 53.842,25.583 53.846 C 25.492 53.847,25.192 53.957,24.917 54.089 M30.667 54.247 C 30.667 54.291,31.042 54.518,31.500 54.750 C 32.548 55.281,32.592 55.173,31.562 54.598 C 30.761 54.150,30.667 54.113,30.667 54.247 M32.583 55.285 C 32.675 55.379,33.275 55.740,33.917 56.087 C 34.558 56.434,35.008 56.642,34.917 56.548 C 34.825 56.455,34.225 56.094,33.583 55.746 C 32.942 55.399,32.492 55.191,32.583 55.285 M35.167 56.741 C 35.167 56.787,35.392 56.941,35.667 57.083 C 35.942 57.226,36.167 57.304,36.167 57.259 C 36.167 57.213,35.942 57.059,35.667 56.917 C 35.392 56.774,35.167 56.696,35.167 56.741 M36.333 57.408 C 36.333 57.454,36.558 57.608,36.833 57.750 C 37.108 57.892,37.333 57.971,37.333 57.925 C 37.333 57.879,37.108 57.726,36.833 57.583 C 36.558 57.441,36.333 57.362,36.333 57.408 M37.500 58.077 C 37.500 58.122,37.800 58.313,38.167 58.500 C 38.533 58.687,38.833 58.803,38.833 58.757 C 38.833 58.711,38.533 58.520,38.167 58.333 C 37.800 58.146,37.500 58.031,37.500 58.077 M39.000 58.908 C 39.000 58.954,39.225 59.108,39.500 59.250 C 39.775 59.392,40.000 59.471,40.000 59.425 C 40.000 59.379,39.775 59.226,39.500 59.083 C 39.225 58.941,39.000 58.862,39.000 58.908 " stroke="none" fill="#a45c84" fill-rule="evenodd"></path><path id="path5" d="" stroke="none" fill="#443040" fill-rule="evenodd"></path><path id="path6" d="" stroke="none" fill="#043044" fill-rule="evenodd"></path><path id="path7" d="" stroke="none" fill="#043404" fill-rule="evenodd"></path><path id="path8" d="" stroke="none" fill="#080404" fill-rule="evenodd"></path></g></svg>
